<svg xmlns="http://www.w3.org/2000/svg" width="640" height="320" viewBox="0 0 640 320" role="img" aria-labelledby="title desc">
  <title id="title">Patitos Fortune — Rectangular Lab Label / Ink</title>
  <desc id="desc">Approved M2 identity. Double-rule research label, editorial lab name, technical duck and EST. 2025.</desc>
  <rect x="14" y="14" width="612" height="292" fill="#F5F0E6" stroke="#102A36" stroke-width="2"/>
  <rect x="22" y="22" width="596" height="276" fill="none" stroke="#102A36" stroke-width="0.9"/>
  <path d="M 22,180 H 618 M 450,180 V 298" fill="none" stroke="#102A36" stroke-width="1"/>
  <text x="320" y="85" fill="#102A36" font-family="Georgia, 'Times New Roman', serif" font-size="32" letter-spacing="3.2" text-anchor="middle">PATITOS FORTUNE</text>
  <text x="320" y="128" fill="#102A36" font-family="'Segoe UI', Arial, Helvetica, sans-serif" font-size="17" letter-spacing="3.8" text-anchor="middle">CREATIVE SOFTWARE LAB</text>
  <text x="60" y="250" fill="#102A36" font-family="Consolas, 'Liberation Mono', monospace" font-size="23" letter-spacing="3">EST. 2025</text>
  <path d="M 60,267 H 116" fill="none" stroke="#102A36" stroke-width="1.5"/>
  <svg x="470" y="176" width="128" height="128" viewBox="0 0 256 256">
<polygon id="duck-bill" points="198,70 220,86 166,86" fill="#102A36" />

<g fill="none" stroke="#102A36" stroke-width="2" stroke-linecap="round" stroke-linejoin="round">
    <path id="duck-silhouette" d="M 32,114 L 80,118 124,122 154,136 136,86 139,66 148,54 166,44 188,50 198,70 220,86 166,86 196,124 196,166 160,210 86,210 42,166 Z" />
    <path id="duck-body-seams" d="M 42,166 L 80,118 124,168 86,210 M 124,168 L 154,136 160,210 M 124,168 L 160,210 M 154,136 L 196,166" />
    <path id="duck-neck-seams" d="M 136,86 L 166,86 154,136 196,124 M 166,86 L 166,44 M 166,86 L 198,70" />
    <path id="duck-body-brace" d="M 124,168 L 196,166" />
  </g>

<circle id="duck-eye" cx="178" cy="65" r="2.2" fill="#102A36" />


<g id="duck-pa-accent">
    <path id="duck-pa-left-leg" d="M 86,210 L 124,168 154,136" fill="none" stroke="#102A36" stroke-width="2.4" stroke-linecap="round" stroke-linejoin="round" />
    <path id="duck-pa-right-leg" d="M 154,136 L 160,210" fill="none" stroke="#102A36" stroke-width="2.2" stroke-linecap="round" stroke-linejoin="round" />
    <path id="duck-pa-counter" d="M 124,168 L 154,136 156.521348,167.096629 Z" fill="none" stroke="#102A36" stroke-width="2.4" stroke-linecap="round" stroke-linejoin="round" />
  </g>

</svg>
</svg>
