<svg xmlns="http://www.w3.org/2000/svg" width="1280" height="640" viewBox="0 0 1280 640" role="img" aria-labelledby="title desc">
  <title id="title">Data Tool — Patitos Fortune</title>
  <desc id="desc">Fictional sample. Inspect small datasets and turn observations into useful views.</desc>
  <rect width="1280" height="640" fill="#F5F0E6" />
  <rect x="24" y="24" width="1232" height="592" fill="none" stroke="#102A36" stroke-width="1.3" />
  <rect x="32" y="32" width="1216" height="576" fill="none" stroke="#102A36" stroke-width=".6" stroke-opacity=".35" />
  <path d="M 824,64 V 480 M 64,492 H 1216" stroke="#102A36" stroke-opacity=".3" stroke-width="1" fill="none" />
  <path d="M 64,66 H 112" stroke="#628580" stroke-width="4" />
  <text x="64" y="108" font-size="16" font-family="Consolas, 'Liberation Mono', monospace" fill="#102A36" id="category" letter-spacing="2">TOOLS</text>
  <text x="1216" y="108" font-size="15" font-family="Consolas, 'Liberation Mono', monospace" fill="#102A36" id="catalogue" text-anchor="end" letter-spacing="1.5">STUDY 03</text>
  <g id="project-name">
    <text x="68" y="222" font-size="80" font-family="Georgia, 'Times New Roman', serif" fill="#102A36">Data Tool</text>
  </g>
  <g id="project-descriptor">
    <text x="66" y="410" font-size="25" font-family="'Segoe UI', Arial, Helvetica, sans-serif" fill="#102A36">Inspect small datasets and turn observations into</text>
    <text x="66" y="444" font-size="25" font-family="'Segoe UI', Arial, Helvetica, sans-serif" fill="#102A36">useful views.</text>
  </g>
  <g id="project-study">
    <text x="876" y="202" font-size="19" font-family="Consolas, 'Liberation Mono', monospace" fill="#102A36">A</text>
    <path d="M 908,218 H 1208" stroke="#102A36" stroke-opacity=".18" stroke-width="1" />
    <rect x="908" y="184" width="57.6" height="24" fill="#628580" />
    <text x="1208" y="202" font-size="18" font-family="Consolas, 'Liberation Mono', monospace" fill="#102A36" text-anchor="end">16</text>
    <text x="876" y="267" font-size="19" font-family="Consolas, 'Liberation Mono', monospace" fill="#102A36">B</text>
    <path d="M 908,283 H 1208" stroke="#102A36" stroke-opacity=".18" stroke-width="1" />
    <rect x="908" y="249" width="100.8" height="24" fill="#628580" />
    <text x="1208" y="267" font-size="18" font-family="Consolas, 'Liberation Mono', monospace" fill="#102A36" text-anchor="end">28</text>
    <text x="876" y="332" font-size="19" font-family="Consolas, 'Liberation Mono', monospace" fill="#102A36">C</text>
    <path d="M 908,348 H 1208" stroke="#102A36" stroke-opacity=".18" stroke-width="1" />
    <rect x="908" y="314" width="162.0" height="24" fill="#628580" />
    <text x="1208" y="332" font-size="18" font-family="Consolas, 'Liberation Mono', monospace" fill="#102A36" text-anchor="end">45</text>
    <text x="876" y="397" font-size="19" font-family="Consolas, 'Liberation Mono', monospace" fill="#102A36">D</text>
    <path d="M 908,413 H 1208" stroke="#102A36" stroke-opacity=".18" stroke-width="1" />
    <rect x="908" y="379" width="223.20000000000002" height="24" fill="#628580" />
    <text x="1208" y="397" font-size="18" font-family="Consolas, 'Liberation Mono', monospace" fill="#102A36" text-anchor="end">62</text>
    <text x="1040" y="476" font-size="14" font-family="Consolas, 'Liberation Mono', monospace" fill="#102A36" text-anchor="middle" letter-spacing="1.2">OBSERVE / ORGANIZE</text>
  </g>
  <svg id="lab-duck" x="64" y="496" width="80" height="80" viewBox="0 0 256 256">
    <defs>
      <path id="silhouette" d="M 32,114 L 80,118 124,122 154,136 136,86 139,66 148,54 166,44 188,50 198,70 220,86 166,86 196,124 196,166 160,210 86,210 42,166 Z" />
      <clipPath id="duck-clip">
        <use href="#silhouette" />
      </clipPath>
    </defs>
    <g id="facets" clip-path="url(#duck-clip)" stroke-width="0.5" stroke-linejoin="round">
      <polygon id="tail" fill="#102A36" stroke="#102A36" points="32,114 80,118 42,166" />
      <polygon id="wing" fill="#628580" stroke="#628580" points="80,118 124,168 86,210 42,166" />
      <polygon id="back" fill="#F5F0E6" stroke="#F5F0E6" points="80,118 124,122 154,136 124,168" />
      <polygon id="fold" fill="#BA6041" stroke="#BA6041" points="124,168 154,136 160,210" />
      <polygon id="keel" fill="#102A36" stroke="#102A36" points="86,210 124,168 160,210" />
      <polygon id="breast" fill="#102A36" stroke="#102A36" points="154,136 196,166 160,210" />
      <polygon id="neck-front" fill="#102A36" stroke="#102A36" points="154,136 196,124 196,166" />
      <polygon id="neck-plane" fill="#52616A" stroke="#52616A" points="166,86 196,124 154,136" />
      <polygon id="neck-fold" fill="#628580" stroke="#628580" points="136,86 166,86 154,136" />
      <polygon id="crown" fill="#102A36" stroke="#102A36" points="136,86 139,66 148,54 166,44 166,86" />
      <polygon id="head" fill="#C49449" stroke="#C49449" points="166,44 188,50 198,70 166,86" />
      <polygon id="bill" fill="#102A36" stroke="#102A36" points="198,70 220,86 166,86" />
    </g>
    <circle id="eye" cx="178" cy="65" r="2.2" fill="#102A36" />
  </svg>
  <text x="160" y="533" font-size="24" font-family="Georgia, 'Times New Roman', serif" fill="#102A36" id="lab-name" letter-spacing="2.5">PATITOS FORTUNE</text>
  <text x="161" y="561" font-size="13" font-family="'Segoe UI', Arial, Helvetica, sans-serif" fill="#102A36" id="lab-role" letter-spacing="2.8">CREATIVE SOFTWARE LAB</text>
  <text x="1216" y="568" font-size="13" font-family="Consolas, 'Liberation Mono', monospace" fill="#102A36" id="sample-label" text-anchor="end" letter-spacing="1.3">FICTIONAL SAMPLE</text>
</svg>
